<svg width="385" height="385" viewBox="0 0 385 385" fill="none" xmlns="http://www.w3.org/2000/svg">
  <path d="M90 265.45V342.188H203.029" stroke="white" stroke-linecap="round" stroke-linejoin="round"/>
  <path d="M275.527 276V342.175H228" stroke="white" stroke-linecap="round" stroke-linejoin="round"/>
  <path d="M90 217.863V41H275.817V223.102" stroke="white" stroke-linecap="round" stroke-linejoin="round"/>
  <path d="M122 174.477L216 367.477L122 174.477Z" fill="white"/>
  <path d="M122 174.477L216 367.477" stroke="white" stroke-linecap="round" stroke-linejoin="round"/>
  <path d="M124 169.477L218 362.477L124 169.477Z" fill="white"/>
  <path d="M124 169.477L218 362.477" stroke="white" stroke-linecap="round"/>
  <path d="M262 269.477L168 77.4768L262 269.477Z" fill="white"/>
  <path d="M262 269.477L168 77.4768" stroke="white" stroke-linecap="round" stroke-linejoin="round"/>
  <path d="M170 71.4768L264 265.477L170 71.4768Z" fill="white"/>
  <path d="M170 71.4768L264 265.477" stroke="white" stroke-linecap="round"/>
  <path d="M170 71.4768L76 270.477L170 71.4768Z" fill="white"/>
  <path d="M170 71.4768L76 270.477" stroke="white" stroke-linecap="round" stroke-linejoin="round"/>
  <path d="M353 77.4768L216 367.477L353 77.4768Z" fill="white"/>
  <path d="M353 77.4768L216 367.477" stroke="white" stroke-linecap="round" stroke-linejoin="round"/>
</svg>
